<?xml version="1.0" encoding="UTF-8" standalone="no"?>
<!-- Created with Inkscape (http://www.inkscape.org/) -->

<svg
   xmlns:dc="http://purl.org/dc/elements/1.1/"
   xmlns:cc="http://creativecommons.org/ns#"
   xmlns:rdf="http://www.w3.org/1999/02/22-rdf-syntax-ns#"
   xmlns:svg="http://www.w3.org/2000/svg"
   xmlns="http://www.w3.org/2000/svg"
   xmlns:sodipodi="http://sodipodi.sourceforge.net/DTD/sodipodi-0.dtd"
   xmlns:inkscape="http://www.inkscape.org/namespaces/inkscape"
   width="210mm"
   height="297mm"
   viewBox="0 0 210 297"
   version="1.1"
   id="svg8"
   inkscape:version="0.92.4 5da689c313, 2019-01-14"
   sodipodi:docname="itba_logo.svg">
  <defs
     id="defs2" />
  <sodipodi:namedview
     id="base"
     pagecolor="#ffffff"
     bordercolor="#666666"
     borderopacity="1.0"
     inkscape:pageopacity="0.0"
     inkscape:pageshadow="2"
     inkscape:zoom="0.7"
     inkscape:cx="270.60133"
     inkscape:cy="621.86731"
     inkscape:document-units="mm"
     inkscape:current-layer="layer1"
     showgrid="false"
     inkscape:window-width="1348"
     inkscape:window-height="730"
     inkscape:window-x="9"
     inkscape:window-y="29"
     inkscape:window-maximized="0" />
  <metadata
     id="metadata5">
    <rdf:RDF>
      <cc:Work
         rdf:about="">
        <dc:format>image/svg+xml</dc:format>
        <dc:type
           rdf:resource="http://purl.org/dc/dcmitype/StillImage" />
        <dc:title></dc:title>
      </cc:Work>
    </rdf:RDF>
  </metadata>
  <g
     inkscape:label="Layer 1"
     inkscape:groupmode="layer"
     id="layer1">
    <path
       style="fill:#16588c;fill-opacity:1;stroke-width:0.3;stroke:#ffffff;stroke-opacity:1;stroke-miterlimit:4;stroke-dasharray:none"
       d="m 19.882282,135.44881 c -0.140401,-0.0818 -0.148167,-1.06284 -0.148167,-18.71781 0,-16.38784 0.01504,-18.625748 0.124908,-18.583588 0.0687,0.0264 2.135625,1.33897 4.593167,2.916908 2.457543,1.57794 5.17311,3.31793 6.034593,3.86664 0.861484,0.54871 1.671109,1.09516 1.799167,1.21432 l 0.232834,0.21667 v 14.53776 c 0,13.17843 -0.01252,14.54257 -0.133925,14.58915 -0.240519,0.0923 -12.341908,0.0535 -12.502577,-0.0401 z m 33.004884,-0.0416 c -0.119052,-0.11906 -0.133048,-0.9646 -0.133048,-8.03834 0,-5.09547 0.02962,-7.92359 0.08335,-7.95679 0.04584,-0.0283 2.569967,1.54381 5.609167,3.49363 3.039201,1.94984 5.841093,3.7467 6.226428,3.99302 0.385334,0.24633 0.737759,0.51729 0.783167,0.60213 0.05012,0.0937 0.08256,1.65086 0.08256,3.96378 0,3.35031 -0.01604,3.82556 -0.133048,3.94257 -0.1185,0.1185 -0.802867,0.13304 -6.259286,0.13304 -5.456419,0 -6.140785,-0.0145 -6.259286,-0.13304 z m 32.886955,-21.24528 c 0,-12.88598 0.0308,-21.378328 0.07754,-21.378328 0.08796,0 16.076609,18.229358 16.145019,18.407658 0.0362,0.0944 -0.24456,0.12128 -1.53551,0.14684 -1.538586,0.0305 -1.584056,0.0365 -1.741116,0.23043 -0.15538,0.1919 -0.16127,0.43154 -0.16127,6.57175 0,5.39258 0.0184,6.38787 0.11987,6.47205 0.0903,0.0749 1.693666,0.091 6.498166,0.065 5.41962,-0.0293 6.47375,-0.0547 7.01331,-0.16932 0.34925,-0.0742 0.80972,-0.13686 1.02326,-0.13931 l 0.38826,-0.005 3.88741,4.44178 c 2.13807,2.44298 3.8874,4.50764 3.8874,4.58813 0,0.2858 -3.19034,1.22509 -5.54566,1.63274 -2.6756,0.46308 -4.33371,0.51009 -18.055176,0.51182 l -12.001503,0.002 z m 45.090609,21.30272 c -0.0475,-0.0768 19.20089,-46.469738 19.33652,-46.605368 0.10348,-0.10347 0.11764,-0.0798 3.72889,6.23747 3.06986,5.370178 3.23222,5.675448 3.19719,6.011328 -0.0203,0.19462 -0.95237,2.67795 -2.07128,5.51852 -1.11891,2.84057 -2.0625,5.25515 -2.09688,5.36574 -0.0417,0.13418 -0.0243,0.22528 0.0524,0.27387 0.0632,0.04 2.49977,0.0734 5.41461,0.0741 4.94159,10e-4 5.30828,0.0113 5.42667,0.14946 0.297,0.34661 6.00229,10.46412 5.96117,10.57127 -0.0383,0.0998 -1.63666,0.11788 -10.44714,0.11788 h -10.4019 l -0.173,0.1905 c -0.0952,0.10478 -1.17306,2.7432 -2.39533,5.86317 -1.22228,3.11996 -2.27542,5.77631 -2.3403,5.90299 -0.0649,0.12668 -0.19127,0.26955 -0.28086,0.3175 -0.20635,0.11043 -12.84266,0.12176 -12.91076,0.0116 z m 48.85538,-0.1149 c -0.15388,-0.13774 -1.64153,-3.63696 -5.37225,-12.63648 -2.83769,-6.8453 -7.54834,-18.1991 -10.46811,-25.230668 -8.85058,-21.31454 -8.36537,-20.12498 -8.24094,-20.20386 0.0618,-0.0392 2.50097,-0.0718 5.42043,-0.0725 l 5.30812,-0.001 0.2137,0.1905 c 0.13693,0.12206 0.57681,1.02703 1.22434,2.51884 0.55584,1.28058 5.45717,12.53913 10.89182,25.018988 13.59033,31.20811 13.25785,30.43937 13.20315,30.52789 -0.0296,0.0478 -2.40627,0.0791 -6.00818,0.0791 h -5.95928 z m -55.86156,-5.461 c -0.62982,-0.87312 -2.20482,-3.05435 -3.49999,-4.84716 -1.29517,-1.79282 -2.39277,-3.35873 -2.43909,-3.47981 -0.0689,-0.18014 -0.0301,-0.34946 0.21355,-0.9315 0.4484,-1.07118 0.60564,-1.77695 0.61109,-2.74301 0.006,-1.04614 -0.11288,-1.55328 -0.60484,-2.58234 -0.31475,-0.65837 -0.50148,-0.92087 -1.029,-1.44653 -1.11607,-1.11214 -2.38029,-1.65663 -4.89833,-2.10969 -0.89795,-0.16157 -1.49458,-0.31131 -1.62519,-0.40789 -0.23826,-0.17617 -7.70996,-10.49469 -7.70996,-10.64755 0,-0.0765 0.81973,-0.11196 3.32317,-0.14382 2.98609,-0.038 3.40744,-0.0607 4.15395,-0.22389 1.83945,-0.402078 2.98952,-0.974028 3.99919,-1.988848 1.15137,-1.15724 1.65766,-2.41368 1.65766,-4.11378 0,-1.64989 -0.51291,-2.95971 -1.57564,-4.0237 -0.98745,-0.98862 -2.15971,-1.49196 -4.44845,-1.91004 -1.00808,-0.18415 -1.28573,-0.19428 -6.09388,-0.22231 -3.23594,-0.0189 -5.083086,6e-4 -5.164666,0.0545 -0.10782,0.0712 -0.1334,0.56076 -0.16934,3.24088 -0.0271,2.02444 -0.0727,3.15541 -0.127,3.15259 -0.0872,-0.004 -12.480854,-17.12883 -12.48565,-17.25143 -0.0015,-0.0377 5.702796,-0.0536 12.67615,-0.0354 13.799476,0.036 13.578116,0.0289 16.615846,0.53431 8.09463,1.34681 12.46782,5.1132 13.41323,11.55206 0.49281,3.35639 0.0706,6.30541 -1.27282,8.89113 -1.44819,2.787248 -3.88222,4.816688 -7.50491,6.257398 -0.89896,0.3575 -1.11514,0.54866 -0.71967,0.63635 0.10478,0.0232 0.64325,0.14131 1.19661,0.26239 3.73576,0.81743 6.9071,2.92105 8.88804,5.89565 1.4554,2.18542 2.18254,4.57788 2.31029,7.60129 0.1567,3.70857 -0.96512,7.20457 -3.1562,9.83588 -0.98931,1.18807 -2.84976,2.78176 -3.2474,2.78176 -0.0866,0 -0.58632,-0.6165 -1.28675,-1.5875 z M 63.375522,119.72714 c -1.119944,-0.9188 -3.910761,-3.20714 -6.201813,-5.0852 -2.291053,-1.87806 -4.22271,-3.49627 -4.292571,-3.59601 -0.111341,-0.15896 -0.12702,-1.546 -0.12702,-11.236898 0,-8.48588 -0.02361,-11.07918 -0.1016,-11.15716 -0.07751,-0.0775 -1.895889,-0.1016 -7.667899,-0.1016 -5.05373,0 -7.620683,-0.0291 -7.730068,-0.0876 -0.159309,-0.0853 -0.163767,-0.23607 -0.163767,-5.53962 0,-4.84345 0.01485,-5.46683 0.133048,-5.58502 0.120082,-0.12009 1.815815,-0.13305 17.401721,-0.13305 14.589983,0 17.31257,0.0183 17.551668,0.11824 0.291709,0.12189 1.011274,0.91876 6.950566,7.69738 1.583267,1.80701 2.878667,3.3309 2.878667,3.38642 0,0.0773 -1.903351,0.10589 -8.128001,0.12204 -7.52223,0.0195 -8.135888,0.0318 -8.233834,0.16435 -0.0838,0.11344 -0.105833,3.53255 -0.105833,16.425418 0,8.95518 -0.02857,16.28142 -0.0635,16.28052 -0.03493,-8.9e-4 -0.979819,-0.75336 -2.099764,-1.67216 z M 29.597783,92.008702 c -1.5367,-1.26225 -4.332613,-3.5549 -6.213139,-5.09477 -2.510185,-2.05547 -3.449897,-2.87338 -3.534834,-3.07666 -0.09054,-0.21669 -0.115695,-0.93916 -0.115695,-3.32282 v -3.04591 l 0.188173,-0.13181 c 0.166095,-0.11633 0.905891,-0.1318 6.305715,-0.1318 h 6.117543 l 0.108013,0.1905 c 0.08605,0.15177 0.102735,1.89059 0.08206,8.55134 -0.01427,4.59845 -0.05247,8.35995 -0.08489,8.35888 -0.03242,-10e-4 -1.316245,-1.03469 -2.852946,-2.29695 z"
       id="path896"
       inkscape:connector-curvature="0" />
  </g>
</svg>
